<svg width="47" height="56" viewBox="0 0 47 56" fill="none" xmlns="http://www.w3.org/2000/svg">
<path d="M41 6L42.3471 10.1459H46.7063L43.1796 12.7082L44.5267 16.8541L41 14.2918L37.4733 16.8541L38.8204 12.7082L35.2937 10.1459H39.6529L41 6Z" fill="#4467E4"/>
<path d="M29 0L30.3471 4.1459H34.7063L31.1796 6.7082L32.5267 10.8541L29 8.2918L25.4733 10.8541L26.8204 6.7082L23.2937 4.1459H27.6529L29 0Z" fill="#4467E4"/>
<path d="M19.8888 28.8529C19.8888 24.0603 21.8224 19.652 25.0623 16.1612C25.4963 15.6936 25.1104 15.0094 24.4098 15.0016C24.3078 15.0005 24.2055 15 24.1031 15C10.8297 15 0.0624099 24.125 0.000269278 35.4016C-0.0618713 46.6521 10.639 55.891 23.8664 55.999C30.4112 56.0526 36.3613 53.8872 40.74 50.3335C41.2434 49.9249 40.9746 49.2011 40.2871 49.1109C28.7342 47.595 19.8888 39.1031 19.8888 28.8529Z" fill="url(#paint0_linear_0_1)"/>
<defs>
<linearGradient id="paint0_linear_0_1" x1="0.892801" y1="29.2655" x2="38.0161" y2="52.4502" gradientUnits="userSpaceOnUse">
<stop stop-color="#41A7EF"/>
<stop offset="0.54219" stop-color="#813DDE"/>
<stop offset="0.74499" stop-color="#8F2EE2"/>
<stop offset="1" stop-color="#A11CE6"/>
</linearGradient>
</defs>
</svg>