<svg width="312" height="288" viewBox="0 0 312 288" fill="none" xmlns="http://www.w3.org/2000/svg">
<path d="M167.788 92.1365L43.6768 283.778C41.1507 287.679 35.844 288.614 32.1371 285.811L4.00789 264.543C0.632855 261.991 -0.171485 257.252 2.17249 253.729L168.116 4.34491C171.34 -0.499402 178.492 -0.391278 181.568 4.54826L237.279 94.0232C239.406 97.4403 238.664 101.906 235.544 104.451L210.382 124.978C206.53 128.12 200.774 127.025 198.345 122.688L181.483 92.5763C178.539 87.3203 171.062 87.0801 167.788 92.1365Z" fill="#554DF5"/>
<path d="M243.11 110.95L213.227 134.244C211.618 135.499 211.211 137.764 212.283 139.5L231.927 171.326C233.142 173.293 235.767 173.824 237.651 172.483L268.353 150.618C270.067 149.397 270.542 147.056 269.439 145.264L248.976 112.008C247.727 109.978 244.99 109.484 243.11 110.95Z" fill="#6270EC"/>
<path d="M275.422 164.221L245.254 185.465C243.563 186.656 243.059 188.941 244.092 190.733L255.349 210.265C256.528 212.31 259.212 212.895 261.135 211.526L291.73 189.738C293.444 188.517 293.919 186.176 292.816 184.383L281.132 165.395C279.923 163.431 277.308 162.893 275.422 164.221Z" fill="#6270EC"/>
<path d="M298.4 203.674L269.933 224.821C268.272 226.055 267.826 228.352 268.905 230.118L275.759 241.333C276.97 243.314 279.608 243.852 281.497 242.502L310.042 222.113C311.719 220.915 312.211 218.638 311.179 216.854L304.247 204.881C303.05 202.813 300.318 202.249 298.4 203.674Z" fill="#7882DE"/>
</svg>
